<svg width="137" height="50" viewBox="0 0 137 50" fill="none" xmlns="http://www.w3.org/2000/svg">
<path d="M64.3828 39.4219V48.0156H62.6406V39.7891C62.6406 39.3346 62.4606 38.8986 62.14 38.5765C61.8193 38.2544 61.3842 38.0724 60.9297 38.0703C59.9784 38.106 59.0503 38.3743 58.2266 38.8516C57.8109 39.1214 57.4625 39.4828 57.2079 39.9079C56.9534 40.3331 56.7994 40.8109 56.7578 41.3047V48.0469H55.0625V31.6953H56.7812V37.9453C57.0951 37.6267 57.4697 37.3744 57.8828 37.2031C58.9909 36.6746 60.2107 36.4226 61.4375 36.4688C62.2186 36.4688 62.9678 36.7791 63.5201 37.3314C64.0725 37.8838 64.3828 38.6329 64.3828 39.4141" fill="#131313"/>
<path d="M64.3828 39.4219V48.0156H62.6406V39.7891C62.6406 39.3346 62.4606 38.8986 62.14 38.5765C61.8193 38.2544 61.3842 38.0724 60.9297 38.0703C59.9784 38.106 59.0503 38.3743 58.2266 38.8516C57.8109 39.1214 57.4625 39.4828 57.2079 39.9079C56.9534 40.3331 56.7994 40.8109 56.7578 41.3047V48.0469H55.0625V31.6953H56.7812V37.9453C57.0951 37.6267 57.4697 37.3744 57.8828 37.2031C58.9909 36.6746 60.2107 36.4226 61.4375 36.4688C62.2186 36.4688 62.9678 36.7791 63.5201 37.3314C64.0725 37.8838 64.3828 38.6329 64.3828 39.4141" stroke="#131313"/>
<path d="M48.8984 32.8124C49.9979 32.7175 51.1036 32.7175 52.2031 32.8124L51.9922 34.3749C50.3291 34.371 48.675 34.6186 47.0859 35.1093C45.985 35.4906 45.0288 36.2025 44.3478 37.1478C43.6668 38.0931 43.2943 39.2256 43.2812 40.3905C43.4062 42.3515 43.7656 44.203 46.8437 45.539C48.5509 46.2447 50.4002 46.5391 52.2422 46.3983L52.1172 47.8749C51.0604 48.0105 49.9935 48.0497 48.9297 47.9921C45.8593 47.8749 41.3203 45.539 41.289 40.4218C41.2578 35.8671 44.7734 33.2421 48.8984 32.8124Z" fill="#131313" stroke="#131313"/>
<path d="M93.0938 31.6953H91.375V48.0078H93.0938V31.6953Z" fill="#131313" stroke="#131313"/>
<path d="M69.2891 44.4531V36.1094H67.5782V44.4531C67.5305 45.0344 67.6022 45.6194 67.7891 46.1719C68.0131 46.7118 68.3911 47.1738 68.876 47.5003C69.3609 47.8268 69.9311 48.0033 70.5157 48.0078C72.2344 48.0078 75.2032 46.1641 75.2032 46.1641V47.5156H76.9219V36.1094H75.2032V44.4531C75.2032 44.4531 73.8282 45.3984 73.3672 45.6172C72.6424 45.9891 71.8381 46.1795 71.0235 46.1719C70.5674 46.1679 70.1309 45.986 69.807 45.665C69.4831 45.3439 69.2972 44.9091 69.2891 44.4531Z" fill="#131313" stroke="#131313"/>
<path d="M85.6328 36.1636C86.4907 36.0913 87.3531 36.0913 88.211 36.1636L88.0469 37.3745C86.7516 37.3741 85.4637 37.569 84.2266 37.9527C83.3709 38.2485 82.6274 38.8011 82.0975 39.5352C81.5676 40.2692 81.2771 41.1489 81.2656 42.0542C81.3672 43.6167 81.6407 45.023 84.0391 46.062C85.3657 46.6113 86.8027 46.8414 88.2344 46.7339L88.1407 47.8745C87.32 47.984 86.491 48.018 85.6641 47.9761C83.2735 47.8745 79.7422 46.062 79.7188 42.0855C79.6953 38.523 82.4297 36.4839 85.6328 36.1636Z" fill="#131313" stroke="#131313"/>
<path d="M100.766 47.0703L99.7344 48.0078C98.1719 46.388 96.7578 44.9818 95.4922 43.7891L93.4297 41.8047C93.6016 41.6484 94.3516 40.8906 95.6875 39.5156C97.0234 38.1406 98.1094 37.0312 98.9375 36.1562L99.9766 37.2266C99.1172 38.0547 98.2266 38.9297 97.2891 39.8438L95.5234 41.5625C97.6328 43.7656 99.3802 45.6016 100.766 47.0703Z" fill="#131313" stroke="#131313"/>
<path d="M104.867 39.6875V48.0078H103.148V36.1094H104.867V37.9297C106.304 37.0042 107.92 36.392 109.609 36.1328L109.945 37.6953C108.125 37.9614 106.389 38.6372 104.867 39.6719V39.6875Z" fill="#131313" stroke="#131313"/>
<path d="M116.891 36.1094C112.477 36.1094 111.367 39.7891 111.367 42.125C111.367 45.0625 112.93 48.0078 116.891 48.0078C120.852 48.0078 122.414 45.1875 122.414 42.125C122.414 39.9141 121.305 36.1094 116.891 36.1094ZM116.891 46.4141C115.831 46.3153 114.848 45.8173 114.141 45.0209C113.435 44.2244 113.058 43.1892 113.086 42.125C113.05 41.5923 113.12 41.0577 113.293 40.5523C113.465 40.0469 113.736 39.5808 114.09 39.1811C114.444 38.7813 114.874 38.4559 115.355 38.2236C115.835 37.9914 116.357 37.8569 116.891 37.8281C118.734 37.8281 120.695 39.3906 120.695 42.125C120.724 43.1892 120.346 44.2244 119.64 45.0209C118.933 45.8173 117.951 46.3153 116.891 46.4141Z" fill="#131313" stroke="#131313"/>
<path d="M129.898 36.1094C125.477 36.1094 124.375 39.7891 124.375 42.125C124.375 45.0625 125.937 48.0078 129.898 48.0078C133.859 48.0078 135.414 45.1875 135.414 42.125C135.414 39.9141 134.312 36.1094 129.898 36.1094ZM129.898 46.4141C128.838 46.3153 127.856 45.8173 127.149 45.0209C126.443 44.2244 126.065 43.1892 126.094 42.125C126.094 39.4219 128.055 37.8281 129.898 37.8281C131.742 37.8281 133.695 39.3906 133.695 42.125C133.724 43.188 133.348 44.2222 132.643 45.0184C131.938 45.8146 130.957 46.3135 129.898 46.4141Z" fill="#131313" stroke="#131313"/>
<path d="M46.375 28.8516C46.38 27.4597 46.019 26.0911 45.3281 24.8828C44.6666 23.6716 44.31 22.3175 44.2891 20.9375C44.2799 19.01 44.9636 17.1435 46.2155 15.6779C47.4674 14.2123 49.2042 13.2453 51.1094 12.9531C51.4922 12.9531 54.2344 12.5625 54.2813 10.9453C54.2188 9.45313 52.0156 9.1875 51.1094 8.86719C49.6969 8.48858 48.3707 7.84137 47.2031 6.96094C46.4846 6.28527 45.979 5.41441 45.7486 4.45536C45.5182 3.49631 45.573 2.49084 45.9062 1.5625C46.6184 2.20603 47.1281 3.0426 47.3736 3.97048C47.6191 4.89836 47.5897 5.87757 47.2891 6.78906C46.6751 8.63838 45.6546 10.3267 44.3027 11.73C42.9508 13.1333 41.3017 14.2159 39.4766 14.8984C37.8445 14.3423 36.1377 14.0368 34.4141 13.9922C32.6976 13.9839 30.9965 14.3153 29.4086 14.9672C27.8207 15.619 26.3774 16.5786 25.1619 17.7905C23.9463 19.0024 22.9825 20.4428 22.3259 22.0287C21.6693 23.6146 21.3328 25.3148 21.3359 27.0312C21.3359 31.7187 24.1875 35.7266 24.4609 36.1172C24.7344 36.5078 25.3828 37.5547 26.1328 38.4609C26.3125 38.6719 32.4453 46.8125 36.2891 47.8359C35.9802 47.8675 35.6699 47.8832 35.3594 47.8828C30.7578 47.8203 29.1953 44.9687 28.1641 43.5391C26.6612 41.116 25.8682 38.32 25.875 35.4688C25.8626 34.0739 26.2169 32.7003 26.9025 31.4855C27.5881 30.2706 28.5808 29.2573 29.7812 28.5469C30.2219 28.2434 30.7105 28.0162 31.2266 27.875C32.2982 27.5743 33.2465 26.9407 33.9346 26.0659C34.6227 25.191 35.0149 24.1201 35.0547 23.0078C35.0547 20.2891 33.1094 18.3203 30.125 17.9453C29.4798 17.8627 28.8301 17.8209 28.1797 17.8203C24.7435 17.8286 21.4509 19.1994 19.0241 21.6321C16.5972 24.0648 15.2344 27.3607 15.2344 30.7969V34.9453C15.2344 36.6494 14.8987 38.3368 14.2466 39.9112C13.5945 41.4856 12.6386 42.9161 11.4336 44.1211C10.2286 45.3261 8.79812 46.282 7.22373 46.9341C5.64934 47.5862 3.96192 47.9219 2.25781 47.9219" stroke="#131313" stroke-width="1.25" stroke-miterlimit="10"/>
<path d="M46.3828 30.3281C47.0991 30.3281 47.6797 29.7475 47.6797 29.0312C47.6797 28.315 47.0991 27.7344 46.3828 27.7344C45.6666 27.7344 45.0859 28.315 45.0859 29.0312C45.0859 29.7475 45.6666 30.3281 46.3828 30.3281Z" fill="#131313" stroke="#131313"/>
<path d="M2.26563 49.1484C2.98187 49.1484 3.5625 48.5678 3.5625 47.8516C3.5625 47.1353 2.98187 46.5547 2.26563 46.5547C1.54938 46.5547 0.96875 47.1353 0.96875 47.8516C0.96875 48.5678 1.54938 49.1484 2.26563 49.1484Z" fill="#131313" stroke="#131313"/>
</svg>
